{
  "accessors": [
    {
      "bufferView": 2,
      "componentType": 5126,
      "count": 2860,
      "max": [
        0.9638938903808594,
        0.9571060538291931,
        0.8585205674171448
      ],
      "min": [
        -0.8926903605461121,
        -0.8995328545570374,
        -0.037499673664569855
      ],
      "type": "VEC3"
    },
    {
      "bufferView": 2,
      "byteOffset": 34320,
      "componentType": 5126,
      "count": 2860,
      "max": [
        0.9996976852416992,
        0.9998559951782227,
        0.9990281462669373
      ],
      "min": [
        -0.9998201131820679,
        -0.9994653463363647,
        -0.9979735612869263
      ],
      "type": "VEC3"
    },
    {
      "bufferView": 1,
      "componentType": 5126,
      "count": 2860,
      "max": [
        0.9987399578094482,
        0.9986696839332581
      ],
      "min": [
        0.0012599636102095246,
        0.0012599636102095246
      ],
      "type": "VEC2"
    },
    {
      "bufferView": 0,
      "componentType": 5125,
      "count": 7470,
      "type": "SCALAR"
    }
  ],
  "asset": {
    "extras": {
      "author": "Christian Gentry (https://sketchfab.com/christianjgentry)",
      "license": "CC-BY-4.0 (http://creativecommons.org/licenses/by/4.0/)",
      "source": "https://sketchfab.com/3d-models/bonfire-lowpoly-5bfbb9ff05fa4d139affb7af5fecee3f",
      "title": "Bonfire-Lowpoly"
    },
    "generator": "Sketchfab-12.67.0",
    "version": "2.0"
  },
  "bufferViews": [
    {
      "buffer": 0,
      "byteLength": 29880,
      "name": "floatBufferViews",
      "target": 34963
    },
    {
      "buffer": 0,
      "byteLength": 22880,
      "byteOffset": 29880,
      "byteStride": 8,
      "name": "floatBufferViews",
      "target": 34962
    },
    {
      "buffer": 0,
      "byteLength": 68640,
      "byteOffset": 52760,
      "byteStride": 12,
      "name": "floatBufferViews",
      "target": 34962
    }
  ],
  "buffers": [
    {
      "byteLength": 121400,
      "uri": "scene.bin"
    }
  ],
  "images": [
    {
      "uri": "textures/Bonfire_Material_baseColor.jpeg"
    }
  ],
  "materials": [
    {
      "doubleSided": true,
      "name": "Bonfire_Material",
      "pbrMetallicRoughness": {
        "baseColorTexture": {
          "index": 0
        },
        "roughnessFactor": 0.8336509146341463
      }
    }
  ],
  "meshes": [
    {
      "name": "Bonfire_Bonfire_Material_0",
      "primitives": [
        {
          "attributes": {
            "NORMAL": 1,
            "POSITION": 0,
            "TEXCOORD_0": 2
          },
          "indices": 3,
          "material": 0,
          "mode": 4
        }
      ]
    }
  ],
  "nodes": [
    {
      "children": [
        1
      ],
      "matrix": [
        0.009768822230398655,
        0.0,
        0.0,
        0.0,
        0.0,
        2.1691142727317325e-18,
        -0.009768822230398655,
        0.0,
        0.0,
        0.009768822230398655,
        2.1691142727317325e-18,
        0.0,
        0.0,
        0.0,
        0.0,
        1.0
      ],
      "name": "Sketchfab_model"
    },
    {
      "children": [
        2
      ],
      "matrix": [
        1.0,
        0.0,
        0.0,
        0.0,
        0.0,
        0.0,
        1.0,
        0.0,
        0.0,
        -1.0,
        0.0,
        0.0,
        0.0,
        0.0,
        0.0,
        1.0
      ],
      "name": "796e6cf3f6b74018aaf4ee8667efe3b1.fbx"
    },
    {
      "children": [
        3
      ],
      "name": "RootNode"
    },
    {
      "children": [
        4
      ],
      "matrix": [
        100.0,
        0.0,
        0.0,
        0.0,
        0.0,
        -1.629206793918314e-05,
        -99.99999999999868,
        0.0,
        0.0,
        99.99999999999868,
        -1.629206793918314e-05,
        0.0,
        0.0,
        0.0,
        0.0,
        1.0
      ],
      "name": "Bonfire"
    },
    {
      "mesh": 0,
      "name": "Bonfire_Bonfire_Material_0"
    }
  ],
  "samplers": [
    {
      "magFilter": 9729,
      "minFilter": 9987,
      "wrapS": 10497,
      "wrapT": 10497
    }
  ],
  "scene": 0,
  "scenes": [
    {
      "name": "Sketchfab_Scene",
      "nodes": [
        0
      ]
    }
  ],
  "textures": [
    {
      "sampler": 0,
      "source": 0
    }
  ]
}
