{
  "accessors": [
    {
      "bufferView": 2,
      "componentType": 5126,
      "count": 58943,
      "max": [
        0.5479978919029236,
        2.5627739429473877,
        0.4767013192176819
      ],
      "min": [
        -0.3377379775047302,
        0.029903054237365723,
        -0.4677054286003113
      ],
      "type": "VEC3"
    },
    {
      "bufferView": 2,
      "byteOffset": 707316,
      "componentType": 5126,
      "count": 58943,
      "max": [
        1.0,
        1.0,
        1.0
      ],
      "min": [
        -1.0,
        -1.0,
        -1.0
      ],
      "type": "VEC3"
    },
    {
      "bufferView": 3,
      "componentType": 5126,
      "count": 58943,
      "max": [
        1.0,
        1.0,
        1.0,
        1.0
      ],
      "min": [
        -1.0,
        -1.0,
        -1.0,
        1.0
      ],
      "type": "VEC4"
    },
    {
      "bufferView": 1,
      "componentType": 5126,
      "count": 58943,
      "max": [
        0.9907335638999939,
        0.9938693642616272
      ],
      "min": [
        0.004422292113304138,
        0.00674835592508316
      ],
      "type": "VEC2"
    },
    {
      "bufferView": 1,
      "byteOffset": 471544,
      "componentType": 5126,
      "count": 58943,
      "max": [
        0.9907335638999939,
        0.9938693642616272
      ],
      "min": [
        0.004422292113304138,
        0.00674835592508316
      ],
      "type": "VEC2"
    },
    {
      "bufferView": 1,
      "byteOffset": 943088,
      "componentType": 5126,
      "count": 58943,
      "max": [
        0.9907335638999939,
        0.9938693642616272
      ],
      "min": [
        0.004422292113304138,
        0.00674835592508316
      ],
      "type": "VEC2"
    },
    {
      "bufferView": 1,
      "byteOffset": 1414632,
      "componentType": 5126,
      "count": 58943,
      "max": [
        0.9907335638999939,
        0.9938693642616272
      ],
      "min": [
        0.004422292113304138,
        0.00674835592508316
      ],
      "type": "VEC2"
    },
    {
      "bufferView": 0,
      "componentType": 5125,
      "count": 189516,
      "type": "SCALAR"
    },
    {
      "bufferView": 2,
      "byteOffset": 1414632,
      "componentType": 5126,
      "count": 2772,
      "max": [
        0.5016142129898071,
        2.3630356788635254,
        0.4546216130256653
      ],
      "min": [
        -0.3156583309173584,
        2.0297160148620605,
        -0.44575467705726624
      ],
      "type": "VEC3"
    },
    {
      "bufferView": 2,
      "byteOffset": 1447896,
      "componentType": 5126,
      "count": 2772,
      "max": [
        0.993290901184082,
        1.0,
        0.993290901184082
      ],
      "min": [
        -0.9932910203933716,
        -1.0,
        -0.993290901184082
      ],
      "type": "VEC3"
    },
    {
      "bufferView": 1,
      "byteOffset": 1886176,
      "componentType": 5126,
      "count": 2772,
      "max": [
        0.7285550236701965,
        0.8262901902198792
      ],
      "min": [
        0.011578756384551525,
        0.6232888102531433
      ],
      "type": "VEC2"
    },
    {
      "bufferView": 0,
      "byteOffset": 758064,
      "componentType": 5125,
      "count": 13824,
      "type": "SCALAR"
    },
    {
      "bufferView": 2,
      "byteOffset": 1481160,
      "componentType": 5126,
      "count": 14796,
      "max": [
        0.429478257894516,
        2.1597743034362793,
        0.39702892303466797
      ],
      "min": [
        -0.25806567072868347,
        2.0616579055786133,
        -0.38817134499549866
      ],
      "type": "VEC3"
    },
    {
      "bufferView": 2,
      "byteOffset": 1658712,
      "componentType": 5126,
      "count": 14796,
      "max": [
        1.0,
        1.0,
        1.0
      ],
      "min": [
        -1.0,
        -1.0,
        -1.0
      ],
      "type": "VEC3"
    },
    {
      "bufferView": 1,
      "byteOffset": 1908352,
      "componentType": 5126,
      "count": 14796,
      "max": [
        3.3787834644317627,
        2.9342174530029297
      ],
      "min": [
        0.7393888235092163,
        0.5712849497795105
      ],
      "type": "VEC2"
    },
    {
      "bufferView": 0,
      "byteOffset": 813360,
      "componentType": 5125,
      "count": 73728,
      "type": "SCALAR"
    },
    {
      "bufferView": 2,
      "byteOffset": 1836264,
      "componentType": 5126,
      "count": 32,
      "max": [
        0.17512227594852448,
        0.029902935028076172,
        0.17512227594852448
      ],
      "min": [
        -0.17512227594852448,
        -0.09138107299804688,
        -0.17512227594852448
      ],
      "type": "VEC3"
    },
    {
      "bufferView": 2,
      "byteOffset": 1836648,
      "componentType": 5126,
      "count": 32,
      "max": [
        1.0,
        1.0,
        1.0
      ],
      "min": [
        -1.0,
        -1.0,
        -1.0
      ],
      "type": "VEC3"
    },
    {
      "bufferView": 1,
      "byteOffset": 2026720,
      "componentType": 5126,
      "count": 32,
      "max": [
        0.9350014328956604,
        0.16298045217990875
      ],
      "min": [
        0.8194441795349121,
        0.00890403427183628
      ],
      "type": "VEC2"
    },
    {
      "bufferView": 0,
      "byteOffset": 1108272,
      "componentType": 5125,
      "count": 60,
      "type": "SCALAR"
    }
  ],
  "asset": {
    "extras": {
      "author": "Full Barrel Productions (https://sketchfab.com/Full_Barrel_Production)",
      "license": "CC-BY-4.0 (http://creativecommons.org/licenses/by/4.0/)",
      "source": "https://sketchfab.com/3d-models/lamp-post-dec736970cc546818e7ae9d47847a3cb",
      "title": "Lamp Post"
    },
    "generator": "Sketchfab-14.97.0",
    "version": "2.0"
  },
  "bufferViews": [
    {
      "buffer": 0,
      "byteLength": 1108512,
      "name": "floatBufferViews",
      "target": 34963
    },
    {
      "buffer": 0,
      "byteLength": 2026976,
      "byteOffset": 1108512,
      "byteStride": 8,
      "name": "floatBufferViews",
      "target": 34962
    },
    {
      "buffer": 0,
      "byteLength": 1837032,
      "byteOffset": 3135488,
      "byteStride": 12,
      "name": "floatBufferViews",
      "target": 34962
    },
    {
      "buffer": 0,
      "byteLength": 943088,
      "byteOffset": 4972520,
      "byteStride": 16,
      "name": "floatBufferViews",
      "target": 34962
    }
  ],
  "buffers": [
    {
      "byteLength": 5915608,
      "uri": "scene.bin"
    }
  ],
  "images": [
    {
      "uri": "textures/Brass_Metal_baseColor.png"
    },
    {
      "uri": "textures/Brass_Metal_metallicRoughness.png"
    },
    {
      "uri": "textures/Brass_Metal_normal.png"
    }
  ],
  "materials": [
    {
      "doubleSided": true,
      "name": "Brass_Metal",
      "normalTexture": {
        "index": 2
      },
      "pbrMetallicRoughness": {
        "baseColorTexture": {
          "index": 0
        },
        "metallicRoughnessTexture": {
          "index": 1
        }
      }
    },
    {
      "alphaMode": "BLEND",
      "doubleSided": true,
      "name": "Glass_-_Lamp",
      "pbrMetallicRoughness": {
        "baseColorFactor": [
          0.940665205793594,
          0.8944867212098904,
          0.6057937517985374,
          0.28495324938133143
        ]
      }
    },
    {
      "alphaMode": "BLEND",
      "doubleSided": true,
      "name": "Glass_-_Light_Bulbs",
      "pbrMetallicRoughness": {
        "baseColorFactor": [
          1.0,
          1.0,
          1.0,
          0.14476234594238763
        ],
        "baseColorTexture": {
          "index": 0
        }
      }
    },
    {
      "doubleSided": true,
      "name": "Concrete",
      "pbrMetallicRoughness": {
        "baseColorFactor": [
          0.350555,
          0.350555,
          0.350555,
          1.0
        ],
        "metallicFactor": 0.0,
        "roughnessFactor": 0.767717
      }
    }
  ],
  "meshes": [
    {
      "name": "Object_0",
      "primitives": [
        {
          "attributes": {
            "NORMAL": 1,
            "POSITION": 0,
            "TANGENT": 2,
            "TEXCOORD_0": 3,
            "TEXCOORD_1": 4,
            "TEXCOORD_2": 5,
            "TEXCOORD_3": 6
          },
          "indices": 7,
          "material": 0,
          "mode": 4
        }
      ]
    },
    {
      "name": "Object_1",
      "primitives": [
        {
          "attributes": {
            "NORMAL": 9,
            "POSITION": 8,
            "TEXCOORD_0": 10
          },
          "indices": 11,
          "material": 1,
          "mode": 4
        }
      ]
    },
    {
      "name": "Object_2",
      "primitives": [
        {
          "attributes": {
            "NORMAL": 13,
            "POSITION": 12,
            "TEXCOORD_0": 14
          },
          "indices": 15,
          "material": 2,
          "mode": 4
        }
      ]
    },
    {
      "name": "Object_3",
      "primitives": [
        {
          "attributes": {
            "NORMAL": 17,
            "POSITION": 16,
            "TEXCOORD_0": 18
          },
          "indices": 19,
          "material": 3,
          "mode": 4
        }
      ]
    }
  ],
  "nodes": [
    {
      "children": [
        1
      ],
      "matrix": [
        1.0,
        0.0,
        0.0,
        0.0,
        0.0,
        2.220446049250313e-16,
        -1.0,
        0.0,
        0.0,
        1.0,
        2.220446049250313e-16,
        0.0,
        0.0,
        0.0,
        0.0,
        1.0
      ],
      "name": "Sketchfab_model"
    },
    {
      "children": [
        2
      ],
      "name": "root"
    },
    {
      "children": [
        3
      ],
      "matrix": [
        1.0,
        0.0,
        0.0,
        0.0,
        0.0,
        2.220446049250313e-16,
        1.0,
        0.0,
        0.0,
        -1.0,
        2.220446049250313e-16,
        0.0,
        0.0,
        0.0,
        0.0,
        1.0
      ],
      "name": "GLTF_SceneRootNode"
    },
    {
      "children": [
        4,
        5,
        6,
        7
      ],
      "name": "Lamp Pole_0"
    },
    {
      "mesh": 0,
      "name": "Object_4"
    },
    {
      "mesh": 1,
      "name": "Object_5"
    },
    {
      "mesh": 2,
      "name": "Object_6"
    },
    {
      "mesh": 3,
      "name": "Object_7"
    }
  ],
  "samplers": [
    {
      "magFilter": 9729,
      "minFilter": 9987,
      "wrapS": 10497,
      "wrapT": 10497
    }
  ],
  "scene": 0,
  "scenes": [
    {
      "name": "Sketchfab_Scene",
      "nodes": [
        0
      ]
    }
  ],
  "textures": [
    {
      "sampler": 0,
      "source": 0
    },
    {
      "sampler": 0,
      "source": 1
    },
    {
      "sampler": 0,
      "source": 2
    }
  ]
}
